<?xml version="1.0" encoding="UTF-8" standalone="no"?>
<svg width="343" height="72" viewBox="0 0 343 72" fill="none" xmlns="http://www.w3.org/2000/svg">
<path d="M101.459 61.7982V45.6187H114.548C115.154 45.6187 115.578 45.1946 115.578 44.6492V38.5895C115.578 38.0441 115.154 37.6199 114.548 37.6199H101.459V28.4698H116.002C116.547 28.4698 117.032 27.985 117.032 27.4396V21.3799C117.032 20.8346 116.547 20.4104 116.002 20.4104H94.4295C93.8841 20.4104 93.46 20.8346 93.46 21.3799V61.7982C93.46 62.4041 93.8841 62.8283 94.4295 62.8283H100.489C101.035 62.8283 101.459 62.4041 101.459 61.7982Z" fill="#137E7D"/>
<path d="M135.989 33.3175H142.291C142.897 33.3175 143.382 33.8023 143.382 34.3477V51.5573C143.382 58.1623 137.807 63.4343 131.262 63.4343C124.718 63.4343 119.143 58.1623 119.143 51.5573V34.3477C119.143 33.8023 119.567 33.3175 120.173 33.3175H126.475C127.02 33.3175 127.505 33.8023 127.505 34.3477V51.5573C127.505 53.557 129.262 55.0113 131.262 55.0113C133.201 55.0113 134.959 53.557 134.959 51.5573V34.3477C134.959 33.8023 135.443 33.3175 135.989 33.3175Z" fill="#137E7D"/>
<path d="M162.067 41.6193C159.279 40.771 156.31 42.9525 156.31 46.0429V61.8588C156.31 62.3435 155.886 62.8283 155.34 62.8283H149.463C148.978 62.8283 148.554 62.3435 148.554 61.8588V34.4083C148.554 33.8629 148.978 33.3781 149.463 33.3781H155.34C155.886 33.3781 156.249 33.8023 156.31 34.2871C159.097 33.1964 162.309 33.3175 165.339 34.5295C165.581 34.6507 165.763 34.8325 165.884 35.1355C165.945 35.3172 165.945 35.6202 165.824 35.8626L163.157 41.1346C162.976 41.5587 162.551 41.8011 162.067 41.6193Z" fill="#137E7D"/>
<path d="M190.164 21.7435V27.8032C190.164 28.1062 189.983 28.3486 189.74 28.591C189.498 28.7728 189.195 28.8334 188.892 28.7728C185.377 28.0456 181.317 28.4698 181.317 33.6811V35.2567H186.468C187.013 35.2567 187.559 35.6808 187.559 36.2868V42.3465C187.559 42.8919 187.013 43.3767 186.468 43.3767H181.317V61.7982C181.317 62.3435 180.893 62.8283 180.287 62.8283H174.167C173.621 62.8283 173.137 62.3435 173.137 61.7982V43.3767H170.592C170.046 43.3767 169.561 42.8919 169.561 42.3465V36.2868C169.561 35.6808 170.046 35.2567 170.592 35.2567H173.137V33.6811C173.137 24.4704 180.529 18.5925 189.377 20.7134C189.801 20.774 190.164 21.2587 190.164 21.7435Z" fill="#137E7D"/>
<path d="M206.449 41.6193C203.662 40.771 200.693 42.9525 200.693 46.0429V61.8588C200.693 62.3435 200.268 62.8283 199.723 62.8283H193.845C193.36 62.8283 192.936 62.3435 192.936 61.8588V34.4083C192.936 33.8629 193.36 33.3781 193.845 33.3781H199.723C200.268 33.3781 200.632 33.8023 200.693 34.2871C203.48 33.1964 206.692 33.3175 209.722 34.5295C209.964 34.6507 210.146 34.8325 210.267 35.1355C210.328 35.3172 210.328 35.6202 210.206 35.8626L207.54 41.1346C207.358 41.5587 206.934 41.8011 206.449 41.6193Z" fill="#137E7D"/>
<path d="M217.958 20.4104C220.2 20.4104 221.957 22.1677 221.957 24.4098C221.957 26.5913 220.2 28.4092 217.958 28.4092C215.776 28.4092 213.958 26.5913 213.958 24.4098C213.958 22.1677 215.776 20.4104 217.958 20.4104ZM214.988 33.2569H220.987C221.533 33.2569 221.957 33.6811 221.957 34.2265V61.7982C221.957 62.4041 221.533 62.8283 220.987 62.8283H214.988C214.382 62.8283 213.958 62.4041 213.958 61.7982V34.2265C213.958 33.6811 214.382 33.2569 214.988 33.2569Z" fill="#137E7D"/>
<path d="M241.525 32.7116C250.008 32.7116 256.916 39.6196 256.916 48.0426C256.916 48.8304 256.856 49.5576 256.734 50.2847C256.674 50.8301 256.189 51.1937 255.704 51.1937H235.223C236.374 53.557 238.858 55.1325 241.525 55.1325C243.161 55.1325 244.615 54.5871 245.827 53.6782C246.251 53.3146 246.797 53.3752 247.221 53.7388L251.644 58.1623C251.826 58.4047 251.947 58.6471 251.947 58.9501C251.947 59.2531 251.826 59.4955 251.584 59.6773C248.857 62.0406 245.342 63.4343 241.525 63.4343C233.041 63.4343 226.194 56.5262 226.194 48.0426C226.194 39.6196 233.041 32.7116 241.525 32.7116ZM247.827 44.9522C246.675 42.5283 244.191 41.0134 241.525 41.0134C238.798 41.0134 236.374 42.5283 235.223 44.9522H247.827Z" fill="#137E7D"/>
<path d="M285.784 61.7982C285.784 62.4041 285.36 62.8283 284.814 62.8283H278.815C278.27 62.8283 277.785 62.4041 277.785 61.7982V46.4671C277.785 43.9826 275.664 42.1647 273.24 42.1647C270.756 42.1647 268.635 43.9826 268.574 46.4065V61.7982C268.574 62.4041 268.15 62.8283 267.605 62.8283H261.605C261.06 62.8283 260.575 62.4041 260.575 61.7982V34.3477C260.575 33.7417 261.06 33.3175 261.605 33.3175H267.605C268.15 33.3175 268.574 33.7417 268.574 34.3477V35.0749C270.028 34.4689 271.604 34.1659 273.24 34.1659C280.027 34.1659 285.784 39.6196 285.784 46.4671V61.7982Z" fill="#137E7D"/>
<path d="M303.588 33.3175C299.468 33.3175 295.771 34.9537 293.105 37.6199C290.439 40.2862 288.803 43.9826 288.803 48.0426C288.803 52.1632 290.439 55.7991 293.105 58.4653V58.5259C295.771 61.1922 299.468 62.8283 303.588 62.8283C306.012 62.8283 308.315 62.2223 310.315 61.1922V61.7982C310.315 62.4041 310.799 62.8283 311.345 62.8283H317.344C317.889 62.8283 318.313 62.4041 318.313 61.7982V21.3799C318.313 20.8346 317.889 20.4104 317.344 20.4104H311.345C310.799 20.4104 310.315 20.8346 310.315 21.3799V34.9537C308.315 33.9235 306.012 33.3175 303.588 33.3175ZM310.315 47.9214V48.2244C310.254 50.0423 309.527 51.6785 308.315 52.8298C307.103 54.1023 305.406 54.8295 303.588 54.8295C301.71 54.8295 300.013 54.1023 298.801 52.8298C297.529 51.6179 296.801 49.9211 296.801 48.0426C296.801 46.2247 297.589 44.528 298.801 43.3161C300.013 42.0435 301.71 41.3164 303.588 41.3164C305.467 41.3164 307.103 42.0435 308.376 43.2555C309.527 44.4674 310.254 46.1035 310.315 47.9214Z" fill="#137E7D"/>
<path d="M335.818 41.9223C334.243 39.9832 331.455 40.5892 331.274 42.2253C331.152 44.225 342.726 44.8916 342.969 53.8599C343.211 64.4038 328.304 66.04 322.002 58.5865C321.82 58.4047 321.76 58.1017 321.82 57.7988C321.82 57.4958 322.002 57.2534 322.245 57.1322L327.395 53.557C327.759 53.254 328.304 53.254 328.607 53.6176C330.91 56.3444 334.849 55.6173 334.788 54.0417C334.97 51.9208 322.366 51.3149 323.154 41.5587C323.881 32.1056 336.546 30.5301 342.242 36.7716C342.423 36.9534 342.484 37.2564 342.484 37.5593C342.423 37.8623 342.302 38.1047 342.06 38.2865L336.97 41.9223C336.606 42.1647 336.061 42.2859 335.818 41.9223Z" fill="#137E7D"/>
<path d="M59.8409 12.2325C54.405 16.3106 47.255 24.2158 45.3924 27.2126C42.9772 31.1008 41.5252 37.2412 45.9725 48.809C50.4197 60.3769 58.0479 64.2644 59.4971 64.848C60.9462 65.4316 66.0026 66.2424 68.2001 62.8837C70.2103 59.8115 72.7363 54.1669 71.1689 46.9647C69.7185 40.2999 64.7142 31.7027 63.4578 23.7293C63.1287 21.6257 62.9824 19.4976 63.0204 17.3688L59.8409 12.2325Z" fill="#137E7D"/>
<path opacity="0.5" d="M65.9184 54.2797C66.0875 62.573 60.5769 65.0443 59.0979 65.2581V66.9692L54.7665 63.1218L52.3367 38.0068L63.7154 25.1C64.7719 32.7948 65.7494 45.9864 65.9184 54.2797Z" fill="url(#paint0_linear_2587_32089)"/>
<path d="M39.0251 53.1319H29.0929L33.3312 59.6718C34.4723 61.4325 34.4723 63.6994 33.3312 65.4601L33.2626 65.5661C31.4656 68.3388 33.4558 72 36.7598 72C38.1724 72 39.4888 71.2844 40.2571 70.099L41.4729 68.223C43.7033 64.7814 43.7033 60.3505 41.4729 56.9089L39.0251 53.1319Z" fill="#A6D9A5"/>
<path opacity="0.1" fill-rule="evenodd" clip-rule="evenodd" d="M38.7697 53.017C39.1886 52.9655 39.57 53.2633 39.6215 53.6823C39.6493 53.9087 39.6788 54.1411 39.709 54.379C40.1872 58.1427 40.8407 63.287 37.769 68.3423C37.5499 68.7031 37.0798 68.8178 36.7191 68.5986C36.3584 68.3794 36.2436 67.9094 36.4628 67.5486C39.2487 62.9635 38.6634 58.314 38.185 54.5143C38.1576 54.2962 38.1305 54.081 38.1044 53.8687C38.0529 53.4498 38.3508 53.0684 38.7697 53.017Z" fill="#0D0F11"/>
<path d="M52.6608 65.7339H53.0156C55.8687 65.7339 58.605 64.6005 60.6225 62.5831C62.64 60.5656 63.7734 57.8293 63.7734 54.9761V20.2418C63.7734 17.3886 62.64 14.6523 60.6225 12.6348C58.605 10.6174 55.8687 9.48395 53.0156 9.48395H26.7891C20.8477 9.48395 14.7764 14.3004 14.7764 20.2418L14.8913 54.9761C14.8913 57.8293 16.2247 60.3656 18.2422 62.383C20.2597 64.4005 22.7967 65.7328 25.6498 65.7328C32.8039 65.7328 39.1597 60.2371 39.1597 52.9325C39.1597 59.8923 43.6453 65.3242 52.6608 65.7339Z" fill="white"/>
<path fill-rule="evenodd" clip-rule="evenodd" d="M41.2931 35.3525C41.0184 35.0321 41.0555 34.5496 41.376 34.2749C42.6855 33.1524 44.0429 32.5816 45.3176 32.3604C45.3512 32.3524 45.3851 32.3468 45.419 32.3435C47.5852 31.9976 49.5008 32.6528 50.5185 33.3063C53.5428 35.1166 54.5321 39.0344 52.7274 42.0641C50.9203 45.0977 46.9962 46.092 43.9625 44.2849C40.955 42.4933 39.9519 38.621 41.6957 35.5985C41.5442 35.5624 41.4023 35.4799 41.2931 35.3525ZM45.7323 33.8445C44.2842 34.6421 43.6505 35.3024 43.0549 36.3023C41.6798 38.6106 42.4364 41.5966 44.7448 42.9717C47.0532 44.3468 50.0392 43.5902 51.4142 41.2818C52.7893 38.9735 52.0327 35.9875 49.7244 34.6124L49.7123 34.6052L49.7005 34.5976C48.9486 34.1114 47.4552 33.5865 45.7323 33.8445Z" fill="#F57805"/>
<ellipse cx="47.3249" cy="38.7275" rx="3.2283" ry="3.22831" fill="#137E7D"/>
<ellipse cx="39.1574" cy="46.5597" rx="3.2283" ry="3.22832" fill="#137E7D"/>
<ellipse cx="31.045" cy="38.7301" rx="3.2283" ry="3.2283" fill="#137E7D"/>
<path d="M53.0156 9.48395H25.4531C22.6 9.48395 19.8637 10.6174 17.8462 12.6348C15.8287 14.6523 14.6953 17.3886 14.6953 20.2418V25.1636H63.7734V20.2418C63.7734 17.3886 62.64 14.6523 60.6225 12.6348C58.6051 10.6174 55.8688 9.48395 53.0156 9.48395Z" fill="#A6D9A5"/>
<path d="M46.6413 7.29071H47.5891C47.7254 7.29071 47.8604 7.31755 47.9863 7.36971C48.1122 7.42186 48.2266 7.49831 48.323 7.59468C48.4193 7.69105 48.4958 7.80546 48.5479 7.93137C48.6001 8.05728 48.6269 8.19224 48.6269 8.32852V14.6735H45.6035V8.32852C45.6035 8.19224 45.6304 8.05728 45.6825 7.93137C45.7347 7.80546 45.8111 7.69105 45.9075 7.59468C46.0039 7.49831 46.1183 7.42186 46.2442 7.36971C46.3701 7.31755 46.505 7.29071 46.6413 7.29071Z" fill="white"/>
<path d="M38.696 7.29071H39.6438C39.7801 7.29071 39.9151 7.31755 40.041 7.36971C40.1669 7.42186 40.2813 7.49831 40.3777 7.59468C40.474 7.69105 40.5505 7.80546 40.6026 7.93137C40.6548 8.05728 40.6816 8.19224 40.6816 8.32852V14.6735H37.6582V8.32852C37.6582 8.05328 37.7675 7.78931 37.9622 7.59468C38.1568 7.40005 38.4208 7.29071 38.696 7.29071Z" fill="white"/>
<path d="M30.7507 7.29071H31.6985C31.8348 7.29071 31.9698 7.31755 32.0957 7.36971C32.2216 7.42186 32.336 7.49831 32.4324 7.59468C32.5287 7.69105 32.6052 7.80546 32.6573 7.93137C32.7095 8.05728 32.7363 8.19224 32.7363 8.32852V14.6735H29.7129V8.32852C29.7129 8.19224 29.7397 8.05728 29.7919 7.93137C29.844 7.80546 29.9205 7.69105 30.0169 7.59468C30.1132 7.49831 30.2276 7.42186 30.3535 7.36971C30.4795 7.31755 30.6144 7.29071 30.7507 7.29071Z" fill="white"/>
<g opacity="0.5">
<path d="M22.9304 9.78162C20.9925 13.1611 20.3662 18.3783 21.8675 24.6737C22.4002 26.9078 23.9188 30.7628 25.137 33.4694C27.5758 38.8877 29.8342 44.8466 29.8342 50.7383C29.8342 56.4798 28.3103 60.2533 25.7802 65.734H20.5314C17.6782 65.734 14.9419 64.6005 12.9245 62.5831C10.907 60.5656 9.77356 57.8293 9.77356 54.9761V20.2418C9.77356 15.5984 17.1388 11.2886 22.9304 9.78162Z" fill="url(#paint1_linear_2587_32089)"/>
</g>
<path d="M20.4265 23.7293C19.4218 17.3526 20.4265 11.7852 22.9333 9.78106C14.2348 10.5874 4.45991 22.9346 2.36114 27.2125C-0.0540993 31.1008 -1.50605 37.2412 2.94121 48.809C7.38848 60.3769 15.0167 64.2644 16.4658 64.848C17.915 65.4316 22.4382 66.5004 24.8534 62.809C27.2686 59.1176 28.3311 52.8949 28.1377 46.9647C27.9443 41.0346 21.683 31.7027 20.4265 23.7293Z" fill="#137E7D"/>
<defs>
<linearGradient id="paint0_linear_2587_32089" x1="59.4184" y1="-13.6788" x2="59.4184" y2="64.618" gradientUnits="userSpaceOnUse">
<stop/>
<stop offset="1" stop-opacity="0"/>
</linearGradient>
<linearGradient id="paint1_linear_2587_32089" x1="20.4094" y1="-25.0012" x2="20.4094" y2="65.734" gradientUnits="userSpaceOnUse">
<stop/>
<stop offset="1" stop-opacity="0"/>
</linearGradient>
</defs>
</svg>
